<?xml version="1.0" standalone="no"?>
<!DOCTYPE svg PUBLIC "-//W3C//DTD SVG 20010904//EN"
 "http://www.w3.org/TR/2001/REC-SVG-20010904/DTD/svg10.dtd">
<svg version="1.0" xmlns="http://www.w3.org/2000/svg"
 width="1184.000000pt" height="1184.000000pt" viewBox="0 0 1184.000000 1184.000000"
 preserveAspectRatio="xMidYMid meet">
<metadata>
Created by potrace 1.11, written by Peter Selinger 2001-2013
</metadata>
<g transform="translate(0.000000,1184.000000) scale(0.100000,-0.100000)"
fill="#000000" stroke="none">
<path d="M9307 8344 c-1 -1 -54 -5 -117 -9 -63 -4 -134 -9 -158 -10 -38 -3
-111 -10 -197 -21 -75 -9 -247 -36 -345 -55 -86 -16 -332 -80 -365 -94 -16 -7
-68 -27 -115 -45 -47 -18 -89 -36 -95 -40 -70 -48 -257 -73 -400 -55 -108 15
-287 77 -352 123 -35 25 -193 99 -230 108 -15 4 -34 11 -40 17 -7 5 -13 7 -13
4 0 -3 -24 1 -52 9 -77 21 -231 26 -308 9 -184 -39 -252 -115 -256 -287 -1
-48 2 -104 6 -125 5 -21 11 -49 13 -63 3 -14 8 -37 12 -51 9 -37 -18 -95 -53
-113 -74 -38 -250 14 -442 129 -94 57 -406 217 -535 275 -109 49 -372 158
-410 169 -22 7 -49 16 -60 21 -34 16 -177 58 -244 73 -86 20 -310 20 -384 1
-137 -36 -251 -126 -277 -220 -18 -65 4 -152 62 -237 43 -65 180 -206 283
-293 78 -66 307 -226 416 -292 88 -53 179 -126 179 -143 0 -6 9 -19 20 -31 23
-25 49 -99 52 -148 7 -113 -50 -218 -147 -276 -115 -67 -331 -62 -461 11 -123
69 -529 405 -769 637 -33 31 -80 76 -105 99 -25 23 -133 126 -240 229 -254
244 -391 349 -603 460 -287 149 -517 175 -712 80 -73 -35 -163 -125 -202 -201
-24 -46 -28 -66 -28 -139 0 -155 52 -257 215 -420 58 -58 152 -143 210 -188
58 -46 112 -89 122 -97 9 -7 61 -46 115 -87 54 -40 100 -76 101 -80 2 -5 8 -8
13 -8 4 0 38 -24 74 -52 36 -29 85 -66 109 -83 140 -96 377 -277 439 -335 88
-82 122 -142 121 -214 -1 -110 -128 -240 -290 -296 -54 -19 -270 -25 -342 -10
-20 5 -55 11 -76 14 -96 15 -278 71 -391 121 -52 23 -474 161 -521 171 -7 1
-48 13 -93 27 -75 24 -264 73 -320 84 -14 2 -28 6 -31 8 -29 18 -281 26 -360
12 -98 -18 -160 -77 -164 -155 -4 -77 49 -189 138 -287 19 -22 36 -44 36 -49
0 -5 6 -17 13 -25 25 -29 59 -129 59 -175 1 -51 -16 -78 -66 -101 -54 -25
-167 -46 -269 -50 -164 -7 -227 -22 -295 -71 -127 -93 -184 -216 -178 -389 3
-118 22 -164 88 -218 78 -64 218 -72 391 -22 45 13 103 35 127 48 107 56 302
80 393 48 78 -27 128 -105 128 -196 0 -84 -31 -143 -122 -230 l-79 -75 -72 -1
c-85 -1 -106 -4 -173 -25 -193 -61 -308 -256 -237 -404 46 -95 161 -178 280
-201 60 -11 224 -8 297 6 17 3 44 8 60 11 64 12 255 79 350 124 92 42 179 93
230 134 11 8 54 42 95 74 113 89 226 207 254 265 8 18 23 41 34 53 11 11 36
42 57 69 78 102 134 165 280 310 249 250 332 323 439 386 137 81 207 103 326
104 116 0 177 -20 258 -85 80 -65 125 -134 163 -253 30 -91 33 -116 35 -232 2
-113 -1 -139 -20 -195 -37 -106 -64 -156 -113 -217 -57 -71 -72 -82 -98 -76
-100 23 -233 39 -305 37 -91 -4 -207 -33 -251 -65 -15 -10 -31 -19 -36 -19 -5
0 -36 -26 -70 -58 -42 -41 -72 -82 -99 -138 -37 -76 -39 -83 -39 -179 0 -73 4
-108 16 -130 9 -16 24 -44 33 -62 40 -76 186 -168 307 -194 62 -13 210 -16
289 -5 63 9 186 38 248 60 23 8 42 13 42 9 0 -3 6 0 13 6 8 6 33 18 57 26 52
18 173 77 180 87 3 4 21 14 40 23 62 29 154 87 257 162 40 29 76 53 79 53 7 0
138 132 169 171 63 78 121 191 225 434 28 66 70 194 94 285 47 178 117 413
137 457 10 23 19 44 19 47 0 14 59 129 98 189 43 68 106 135 149 158 29 15 30
14 37 -41 23 -190 175 -374 376 -453 84 -32 250 -48 335 -31 17 3 44 7 60 9
125 15 273 84 405 190 77 62 234 232 289 313 14 20 29 42 34 47 18 22 102 154
140 220 45 80 51 91 142 275 63 129 122 233 159 282 9 13 29 41 44 64 69 106
83 124 114 154 69 65 134 81 223 55 61 -17 154 -79 181 -120 9 -14 47 -51 86
-84 180 -152 325 -175 497 -78 57 32 221 183 221 203 0 7 4 14 8 16 9 3 64 86
104 158 37 65 215 328 346 512 26 36 71 101 101 145 50 71 160 190 220 236
181 142 529 265 820 293 31 2 65 8 76 11 30 9 368 11 423 2 26 -4 72 -10 102
-13 229 -24 642 -184 777 -300 83 -71 196 -126 260 -126 49 0 118 41 156 92
39 53 73 146 68 188 -4 36 -43 83 -100 119 -46 30 -197 99 -231 106 -8 2 -48
14 -87 28 -40 14 -73 24 -73 22 0 -3 -11 0 -25 5 -22 8 -79 18 -340 61 -67 10
-82 13 -157 24 -18 2 -71 9 -118 15 -47 6 -96 13 -110 15 -14 2 -56 6 -95 10
-38 4 -83 8 -100 10 -43 5 -183 17 -230 20 -22 1 -94 6 -160 10 -101 7 -691
15 -698 9z"/>
</g>
</svg>
